<svg width="423" height="auto" viewBox="0 0 423 86" fill="none" xmlns="http://www.w3.org/2000/svg">
<path d="M43.7259 23.1506C43.4489 22.0213 43.0121 21.0305 42.4155 20.1783C41.8189 19.3047 41.0732 18.5696 40.1783 17.973C39.3047 17.3551 38.282 16.897 37.1101 16.5987C35.9595 16.2791 34.6918 16.1193 33.3068 16.1193C30.3239 16.1193 27.7777 16.8331 25.6683 18.2607C23.5803 19.6882 21.9822 21.7443 20.8743 24.429C19.7876 27.1136 19.2443 30.3523 19.2443 34.1449C19.2443 37.9801 19.7663 41.2614 20.8104 43.9886C21.8544 46.7159 23.4098 48.804 25.4766 50.2528C27.5433 51.7017 30.1108 52.4261 33.179 52.4261C35.8849 52.4261 38.1328 52.032 39.9226 51.2436C41.7337 50.4553 43.0867 49.3366 43.9815 47.8878C44.8764 46.4389 45.3239 44.7344 45.3239 42.7741L48.392 43.0938H33.4347V30.4375H62.4545V39.5142C62.4545 45.4801 61.1868 50.5831 58.6513 54.8232C56.1371 59.0419 52.6641 62.2805 48.2322 64.5391C43.8217 66.7763 38.7614 67.8949 33.0511 67.8949C26.6804 67.8949 21.0874 66.5419 16.272 63.8359C11.4567 61.13 7.69602 57.2734 4.99006 52.2663C2.3054 47.2592 0.963068 41.304 0.963068 34.4006C0.963068 28.9886 1.78338 24.1946 3.42401 20.0185C5.08594 15.8423 7.38707 12.3161 10.3274 9.43963C13.2678 6.5419 16.6662 4.35795 20.5227 2.88778C24.3793 1.3963 28.5128 0.650566 32.9233 0.650566C36.8011 0.650566 40.402 1.20454 43.7259 2.3125C47.071 3.39915 50.022 4.95454 52.5788 6.97869C55.157 8.98153 57.2344 11.3572 58.8111 14.1058C60.3878 16.8544 61.3466 19.8693 61.6875 23.1506H43.7259ZM83.013 68.0866C79.9022 68.0866 77.1855 67.5114 74.8631 66.3608C72.5407 65.1889 70.8255 63.495 69.7175 61.2791C68.6096 59.0632 68.3219 56.3466 68.8546 53.1293C69.3233 50.3594 70.2395 48.0795 71.6032 46.2898C72.9881 44.5 74.6713 43.0831 76.6529 42.0391C78.6344 40.9737 80.7864 40.1747 83.1088 39.642C85.4313 39.1094 87.775 38.7152 90.1401 38.4595C93.123 38.1186 95.5414 37.831 97.3951 37.5966C99.2701 37.3622 100.676 37 101.614 36.5099C102.551 35.9986 103.116 35.1676 103.308 34.017V33.7933C103.755 31.0234 103.35 28.8714 102.093 27.3374C100.857 25.782 98.7054 25.0043 95.6373 25.0043C92.4412 25.0043 89.7566 25.7074 87.5833 27.1136C85.4313 28.5199 83.8439 30.0966 82.8212 31.8438L74.2559 29.7983C75.79 26.8153 77.7395 24.4077 80.1046 22.5753C82.4909 20.7216 85.101 19.3793 87.9348 18.5483C90.7686 17.696 93.6664 17.2699 96.628 17.2699C98.5882 17.2699 100.623 17.5043 102.732 17.973C104.842 18.4205 106.759 19.2514 108.485 20.4659C110.232 21.6804 111.532 23.4169 112.384 25.6754C113.237 27.9126 113.365 30.821 112.768 34.4006L107.367 67H98.0343L99.1848 60.2884H98.8013C97.9917 61.5241 96.8624 62.7386 95.4135 63.9318C93.986 65.125 92.2388 66.1158 90.1721 66.9041C88.1053 67.6925 85.7189 68.0866 83.013 68.0866ZM86.2729 60.4162C88.9363 60.4162 91.2907 59.8942 93.3361 58.8501C95.4029 57.8061 97.0755 56.4425 98.3539 54.7592C99.6323 53.0547 100.431 51.233 100.751 49.294L101.806 42.9659C101.401 43.3068 100.687 43.6158 99.6642 43.8928C98.6628 44.1697 97.5336 44.4148 96.2765 44.6278C95.0194 44.8409 93.7836 45.022 92.5691 45.1712C91.3759 45.3203 90.3851 45.4588 89.5968 45.5866C87.7218 45.821 85.964 46.2152 84.3233 46.7692C82.704 47.3232 81.351 48.1222 80.2644 49.1662C79.1777 50.1889 78.4959 51.5526 78.2189 53.2571C77.8354 55.6222 78.4 57.4119 79.9128 58.6264C81.4469 59.8196 83.5669 60.4162 86.2729 60.4162ZM120.127 67L128.309 17.9091H137.481L136.139 25.8991H136.746C138.238 23.1932 140.262 21.0838 142.819 19.571C145.397 18.0369 148.316 17.2699 151.576 17.2699C154.814 17.2699 157.424 18.0369 159.406 19.571C161.409 21.1051 162.719 23.2145 163.337 25.8991H163.848C165.425 23.2571 167.63 21.1584 170.464 19.603C173.298 18.0476 176.483 17.2699 180.02 17.2699C184.431 17.2699 187.819 18.6761 190.184 21.4886C192.57 24.2798 193.294 28.4773 192.357 34.081L186.86 67H177.272L182.641 34.9759C183.174 31.6307 182.662 29.223 181.107 27.7528C179.551 26.2614 177.517 25.5156 175.002 25.5156C171.892 25.5156 169.314 26.4744 167.268 28.392C165.223 30.2884 163.966 32.728 163.497 35.7109L158.223 67H148.731L154.196 34.3686C154.623 31.6839 154.132 29.5426 152.726 27.9446C151.341 26.3253 149.317 25.5156 146.654 25.5156C144.843 25.5156 143.085 25.995 141.38 26.9538C139.697 27.9126 138.259 29.2337 137.066 30.9169C135.873 32.6001 135.095 34.5391 134.733 36.7337L129.683 67H120.127ZM220.666 67.9908C215.85 67.9908 211.866 66.9574 208.713 64.8906C205.58 62.8026 203.386 59.8729 202.129 56.1016C200.872 52.3089 200.669 47.8665 201.521 42.7741C202.352 37.7457 204.025 33.3139 206.539 29.4787C209.053 25.6435 212.186 22.6499 215.936 20.4979C219.707 18.3459 223.872 17.2699 228.432 17.2699C231.202 17.2699 233.812 17.728 236.262 18.6442C238.734 19.5604 240.833 20.9986 242.558 22.9588C244.284 24.919 245.477 27.4652 246.138 30.5973C246.82 33.7081 246.798 37.4901 246.074 41.9432L245.531 45.331H206.475L207.594 38.1719H237.253C237.7 35.6577 237.583 33.4311 236.901 31.4922C236.22 29.532 235.048 27.9872 233.386 26.858C231.745 25.7287 229.678 25.1641 227.186 25.1641C224.629 25.1641 222.242 25.8352 220.026 27.1776C217.811 28.5199 215.957 30.2351 214.465 32.3232C212.995 34.3899 212.068 36.5206 211.685 38.7152L210.566 45.267C210.012 48.8466 210.108 51.723 210.854 53.8963C211.621 56.0696 212.963 57.6463 214.881 58.6264C216.798 59.6065 219.195 60.0966 222.072 60.0966C223.926 60.0966 225.641 59.8409 227.218 59.3295C228.816 58.7969 230.232 58.0192 231.468 56.9964C232.704 55.9524 233.737 54.6527 234.568 53.0973L243.325 54.7273C242.154 57.3906 240.47 59.7237 238.276 61.7266C236.081 63.7081 233.492 65.2528 230.509 66.3608C227.548 67.4474 224.267 67.9908 220.666 67.9908ZM317.929 34.2727C317.929 41.5597 316.512 47.7067 313.678 52.7138C310.844 57.6996 307.02 61.4815 302.204 64.0597C297.389 66.6165 292.02 67.8949 286.096 67.8949C280.13 67.8949 274.74 66.6058 269.924 64.0277C265.13 61.4283 261.316 57.6357 258.483 52.6499C255.67 47.6428 254.264 41.517 254.264 34.2727C254.264 26.9858 255.67 20.8494 258.483 15.8636C261.316 10.8565 265.13 7.07457 269.924 4.51775C274.74 1.93963 280.13 0.650566 286.096 0.650566C292.02 0.650566 297.389 1.93963 302.204 4.51775C307.02 7.07457 310.844 10.8565 313.678 15.8636C316.512 20.8494 317.929 26.9858 317.929 34.2727ZM299.647 34.2727C299.647 30.3523 299.125 27.0497 298.081 24.3651C297.059 21.6591 295.535 19.6136 293.511 18.2287C291.508 16.8224 289.037 16.1193 286.096 16.1193C283.156 16.1193 280.674 16.8224 278.65 18.2287C276.647 19.6136 275.123 21.6591 274.079 24.3651C273.056 27.0497 272.545 30.3523 272.545 34.2727C272.545 38.1932 273.056 41.5064 274.079 44.2124C275.123 46.897 276.647 48.9425 278.65 50.3487C280.674 51.7337 283.156 52.4261 286.096 52.4261C289.037 52.4261 291.508 51.7337 293.511 50.3487C295.535 48.9425 297.059 46.897 298.081 44.2124C299.125 41.5064 299.647 38.1932 299.647 34.2727ZM321.229 85.4091L332.542 17.9091H341.875L340.564 25.8672H341.363C342.088 24.8445 343.068 23.6619 344.304 22.3196C345.561 20.9773 347.212 19.8054 349.258 18.804C351.303 17.7812 353.849 17.2699 356.896 17.2699C360.859 17.2699 364.215 18.2713 366.964 20.2741C369.712 22.277 371.672 25.1641 372.844 28.9354C374.016 32.7067 374.165 37.245 373.292 42.5504C372.418 47.8558 370.778 52.4048 368.37 56.1974C365.962 59.9687 363.043 62.8771 359.613 64.9226C356.204 66.9467 352.507 67.9588 348.523 67.9588C345.54 67.9588 343.185 67.4581 341.459 66.4567C339.755 65.4553 338.487 64.2834 337.656 62.9411C336.825 61.5987 336.197 60.4055 335.77 59.3615H335.195L330.849 85.4091H321.229ZM337.816 42.4545C337.262 45.9062 337.262 48.9318 337.816 51.5312C338.37 54.1307 339.478 56.1655 341.14 57.6357C342.823 59.0845 345.039 59.8089 347.787 59.8089C350.643 59.8089 353.146 59.0526 355.298 57.5398C357.45 56.0057 359.229 53.9283 360.635 51.3075C362.063 48.6868 363.054 45.7358 363.608 42.4545C364.14 39.2159 364.13 36.3075 363.576 33.7294C363.043 31.1513 361.946 29.1165 360.284 27.625C358.622 26.1335 356.353 25.3878 353.476 25.3878C350.685 25.3878 348.214 26.1016 346.062 27.5291C343.931 28.9567 342.162 30.9489 340.756 33.5057C339.35 36.0625 338.37 39.0455 337.816 42.4545ZM422.886 29.8942L413.969 31.4283C413.777 30.299 413.383 29.2337 412.787 28.2322C412.211 27.2308 411.327 26.4212 410.134 25.8033C408.941 25.1641 407.353 24.8445 405.372 24.8445C402.623 24.8445 400.216 25.473 398.149 26.7301C396.103 27.9872 394.931 29.5852 394.633 31.5241C394.356 33.1009 394.729 34.3793 395.752 35.3594C396.775 36.3182 398.575 37.1172 401.153 37.7564L408.696 39.5462C413.042 40.5902 416.153 42.2202 418.028 44.4361C419.924 46.6307 420.585 49.4858 420.01 53.0014C419.52 55.9205 418.241 58.5092 416.174 60.7678C414.129 63.0263 411.508 64.7947 408.312 66.0732C405.116 67.3516 401.558 67.9908 397.637 67.9908C392.055 67.9908 387.708 66.8082 384.598 64.4432C381.487 62.0781 379.889 58.733 379.804 54.4077L389.264 53.0014C389.434 55.4091 390.297 57.2308 391.853 58.4666C393.429 59.6811 395.613 60.2884 398.404 60.2884C401.6 60.3097 404.275 59.6385 406.426 58.2749C408.578 56.9112 409.804 55.2599 410.102 53.321C410.358 51.8082 410.017 50.5511 409.079 49.5497C408.163 48.5483 406.544 47.7812 404.221 47.2486L396.295 45.4268C391.863 44.3828 388.731 42.6996 386.899 40.3771C385.066 38.0547 384.449 35.1357 385.045 31.62C385.514 28.7436 386.728 26.2401 388.689 24.1094C390.67 21.9574 393.174 20.2848 396.199 19.0916C399.225 17.8771 402.57 17.2699 406.235 17.2699C411.583 17.2699 415.599 18.4205 418.284 20.7216C420.968 23.0014 422.502 26.0589 422.886 29.8942Z" fill="white"/>
</svg>
