<svg width="135" height="68" viewBox="0 0 135 68" fill="none" xmlns="http://www.w3.org/2000/svg">
<path d="M43.7259 23.1506C43.4489 22.0213 43.0121 21.0305 42.4155 20.1783C41.8189 19.3047 41.0732 18.5696 40.1783 17.973C39.3047 17.3551 38.282 16.897 37.1101 16.5987C35.9595 16.2791 34.6918 16.1193 33.3068 16.1193C30.3239 16.1193 27.7777 16.8331 25.6683 18.2607C23.5803 19.6882 21.9822 21.7443 20.8743 24.429C19.7876 27.1136 19.2443 30.3523 19.2443 34.1449C19.2443 37.9801 19.7663 41.2614 20.8104 43.9886C21.8544 46.7159 23.4098 48.804 25.4766 50.2528C27.5433 51.7017 30.1108 52.4261 33.179 52.4261C35.8849 52.4261 38.1328 52.032 39.9226 51.2436C41.7337 50.4553 43.0867 49.3366 43.9815 47.8878C44.8764 46.4389 45.3239 44.7344 45.3239 42.7741L48.392 43.0938H33.4347V30.4375H62.4545V39.5142C62.4545 45.4801 61.1868 50.5831 58.6513 54.8232C56.1371 59.0419 52.6641 62.2805 48.2322 64.5391C43.8217 66.7763 38.7614 67.8949 33.0511 67.8949C26.6804 67.8949 21.0874 66.5419 16.272 63.8359C11.4567 61.13 7.69602 57.2734 4.99006 52.2663C2.3054 47.2592 0.963068 41.304 0.963068 34.4006C0.963068 28.9886 1.78338 24.1946 3.42401 20.0185C5.08594 15.8423 7.38707 12.3161 10.3274 9.43963C13.2678 6.5419 16.6662 4.35795 20.5227 2.88778C24.3793 1.3963 28.5128 0.650566 32.9233 0.650566C36.8011 0.650566 40.402 1.20454 43.7259 2.3125C47.071 3.39915 50.022 4.95454 52.5788 6.97869C55.157 8.98153 57.2344 11.3572 58.8111 14.1058C60.3878 16.8544 61.3466 19.8693 61.6875 23.1506H43.7259ZM134.149 34.2727C134.149 41.5597 132.732 47.7067 129.899 52.7138C127.065 57.6996 123.24 61.4815 118.425 64.0597C113.61 66.6165 108.24 67.8949 102.317 67.8949C96.351 67.8949 90.9604 66.6058 86.1451 64.0277C81.351 61.4283 77.5371 57.6357 74.7033 52.6499C71.8908 47.6428 70.4846 41.517 70.4846 34.2727C70.4846 26.9858 71.8908 20.8494 74.7033 15.8636C77.5371 10.8565 81.351 7.07457 86.1451 4.51775C90.9604 1.93963 96.351 0.650566 102.317 0.650566C108.24 0.650566 113.61 1.93963 118.425 4.51775C123.24 7.07457 127.065 10.8565 129.899 15.8636C132.732 20.8494 134.149 26.9858 134.149 34.2727ZM115.868 34.2727C115.868 30.3523 115.346 27.0497 114.302 24.3651C113.279 21.6591 111.756 19.6136 109.732 18.2287C107.729 16.8224 105.257 16.1193 102.317 16.1193C99.3766 16.1193 96.8944 16.8224 94.8702 18.2287C92.8674 19.6136 91.3439 21.6591 90.2999 24.3651C89.2772 27.0497 88.7658 30.3523 88.7658 34.2727C88.7658 38.1932 89.2772 41.5064 90.2999 44.2124C91.3439 46.897 92.8674 48.9425 94.8702 50.3487C96.8944 51.7337 99.3766 52.4261 102.317 52.4261C105.257 52.4261 107.729 51.7337 109.732 50.3487C111.756 48.9425 113.279 46.897 114.302 44.2124C115.346 41.5064 115.868 38.1932 115.868 34.2727Z" fill="#5855FF"/>
</svg>
